# xmcd
#
# Track frame offsets: 
#        150
#        16452
#        31652
#        48407
#        62570
#        77225
#        98150
#        110750
#        125567
#        136930
#        157092
#        171635
#
# Disc length: 2490 seconds
#
# Revision: 0
# Processed by: cddbd v1.4PL0 Copyright (c) Steve Scherf et al.
# Submitted via: ExactAudioCopy v0.90a11
#
DISCID=a309b80c
DTITLE=Sabien Tiels - Ik ben ik
DYEAR=1900
DGENRE=
TTITLE0=Sabien Tiels - Leun Op Mij
TTITLE1=Sabien Tiels - Straatmuzikant
TTITLE2=Sabien Tiels - Breek Het Ijs
TTITLE3=Sabien Tiels - Alles
TTITLE4=Sabien Tiels - Ik Ben Ik
TTITLE5=Sabien Tiels - Ik Mis Je
TTITLE6=Sabien Tiels - Neem Me
TTITLE7=Sabien Tiels - Vrienden
TTITLE8=Sabien Tiels - Spiegel
TTITLE9=Sabien Tiels - Ik Voel Niets Meer
TTITLE10=Sabien Tiels - In Je Armen
TTITLE11=Sabien Tiels - Hit Op Maat
EXTD=nederlandstalig
EXTT0=
EXTT1=
EXTT2=
EXTT3=
EXTT4=
EXTT5=
EXTT6=
EXTT7=
EXTT8=
EXTT9=
EXTT10=
EXTT11=
PLAYORDER=
